<svg id="d65c0891-1924-425b-a797-26ac0518bc5d" data-name="CCE-3" xmlns="http://www.w3.org/2000/svg" viewBox="0 0 471.11 85.95"><title>banner-cce-web</title><path d="M121.59,54a11.62,11.62,0,0,0,.62,3.91,8.76,8.76,0,0,0,1.71,2.92,7.27,7.27,0,0,0,2.56,1.82,8.18,8.18,0,0,0,3.22.63,4.9,4.9,0,0,0,2-.42,7.85,7.85,0,0,0,1.78-1.1,9.27,9.27,0,0,0,1.47-1.53A10.4,10.4,0,0,0,136,58.49l1.38.94a14.12,14.12,0,0,1-1.43,2,9.42,9.42,0,0,1-1.91,1.7,9.78,9.78,0,0,1-2.45,1.19,10,10,0,0,1-3,.44,11.66,11.66,0,0,1-3.06-.39,11.48,11.48,0,0,1-2.64-1.1,9.89,9.89,0,0,1-2.15-1.7,10.4,10.4,0,0,1-1.6-2.2,10.59,10.59,0,0,1-1-2.56,11.38,11.38,0,0,1,1-8.24,10.8,10.8,0,0,1,1.64-2.22,10.51,10.51,0,0,1,4.86-2.85,11.5,11.5,0,0,1,3.1-.41,8.77,8.77,0,0,1,2.87.45,10,10,0,0,1,4.35,2.88,14.14,14.14,0,0,1,1.45,2l-1.42,1a10.57,10.57,0,0,0-2.76-3.69,5.59,5.59,0,0,0-3.49-1.17,7.91,7.91,0,0,0-3.19.65A7.52,7.52,0,0,0,124,47.11a8.85,8.85,0,0,0-1.73,3A11.25,11.25,0,0,0,121.59,54Z" style="fill:#2a7fbe"/><path d="M148.13,64.61a7.9,7.9,0,0,1-3.21-.64,7.62,7.62,0,0,1-2.53-1.74,8,8,0,0,1-1.66-2.57,8.34,8.34,0,0,1-.6-3.16,9.1,9.1,0,0,1,.6-3.32,8.38,8.38,0,0,1,1.66-2.71,7.83,7.83,0,0,1,2.53-1.82,7.75,7.75,0,0,1,3.21-.67,8.27,8.27,0,0,1,3.18.61,7.91,7.91,0,0,1,2.53,1.67,7.52,7.52,0,0,1,1.67,2.5,7.89,7.89,0,0,1,.6,3.07,9.59,9.59,0,0,1-.6,3.41A8.5,8.5,0,0,1,153.84,62a7.74,7.74,0,0,1-2.53,1.89A7.33,7.33,0,0,1,148.13,64.61Zm.56-1.17a2.89,2.89,0,0,0,1.63-.49,4.63,4.63,0,0,0,1.28-1.29,6.26,6.26,0,0,0,.83-1.89,8.61,8.61,0,0,0,.3-2.29,17.57,17.57,0,0,0-.28-3.25,8.57,8.57,0,0,0-.92-2.64,4.91,4.91,0,0,0-1.64-1.77,4.58,4.58,0,0,0-2.5-.65,2.7,2.7,0,0,0-1.46.46,4.59,4.59,0,0,0-1.25,1.27,7,7,0,0,0-.86,1.87A7.64,7.64,0,0,0,143.5,55a14.26,14.26,0,0,0,.35,3.27,9.45,9.45,0,0,0,1,2.67,5.48,5.48,0,0,0,1.63,1.8A3.83,3.83,0,0,0,148.69,63.44Z" style="fill:#2a7fbe"/><path d="M162,48.31V59.66a2.6,2.6,0,0,0,.26,1.13,3,3,0,0,0,.71.91,3.57,3.57,0,0,0,1.06.62,3.65,3.65,0,0,0,1.29.23,2.71,2.71,0,0,0,1-.2,4.47,4.47,0,0,0,1-.56,6,6,0,0,0,.92-.83,4.92,4.92,0,0,0,.71-1V48.31h3v16h-3v-3a6.31,6.31,0,0,1-1,1.3,7.73,7.73,0,0,1-1.3,1.06,6.57,6.57,0,0,1-1.43.71,4.1,4.1,0,0,1-1.41.26,4.48,4.48,0,0,1-1.85-.39,5,5,0,0,1-1.52-1.06,4.89,4.89,0,0,1-1-1.57,5,5,0,0,1-.38-1.93V48.31Z" style="fill:#2a7fbe"/><path d="M175.41,48.31h3v2.91a10.16,10.16,0,0,1,2.85-2.43,6.19,6.19,0,0,1,3-.81,3.11,3.11,0,0,1,1.49.38,4.11,4.11,0,0,1,1.21,1,5.06,5.06,0,0,1,.81,1.53,5.83,5.83,0,0,1,.3,1.88V64.27h-3V53.35a3.66,3.66,0,0,0-.67-2.39,2.14,2.14,0,0,0-1.73-.82,3.48,3.48,0,0,0-1,.16,5.9,5.9,0,0,0-1.08.47,8.72,8.72,0,0,0-1.1.73,9.27,9.27,0,0,0-1.06.94V64.27h-3Z" style="fill:#2a7fbe"/><path d="M199.58,62.23A4.66,4.66,0,0,1,198,64a4.46,4.46,0,0,1-2.46.64,3,3,0,0,1-1.32-.27,2.4,2.4,0,0,1-.92-.75,3.12,3.12,0,0,1-.54-1.18,5.9,5.9,0,0,1-.18-1.51V49.65h-2.62v-.79a4.09,4.09,0,0,0,2.09-.48,3.88,3.88,0,0,0,1.33-1.31,7.06,7.06,0,0,0,.82-1.91c.2-.72.37-1.49.52-2.3h.86v5.45h3.39v1.34h-3.39V60.9a1.7,1.7,0,0,0,.13.67,1.9,1.9,0,0,0,.34.54,1.73,1.73,0,0,0,.52.36,1.57,1.57,0,0,0,.64.14,1.7,1.7,0,0,0,.92-.26,3,3,0,0,0,.73-.65Z" style="fill:#2a7fbe"/><path d="M201.39,48.31h3v3a12,12,0,0,1,.94-1.28A8.89,8.89,0,0,1,206.37,49a5.1,5.1,0,0,1,1.14-.73A2.79,2.79,0,0,1,208.7,48a2.72,2.72,0,0,1,.91.16,2.34,2.34,0,0,1,.74.42,1.91,1.91,0,0,1,.5.6,1.62,1.62,0,0,1,.18.74,1.48,1.48,0,0,1-.45,1.17,1.92,1.92,0,0,1-1.28.39,2.51,2.51,0,0,1-.81-.11,4,4,0,0,1-.55-.25,4.74,4.74,0,0,0-.5-.26,1.65,1.65,0,0,0-.63-.11,1.09,1.09,0,0,0-.6.19,2.78,2.78,0,0,0-.6.52,6,6,0,0,0-.62.79c-.2.3-.41.63-.61,1V64.27h-3Z" style="fill:#2a7fbe"/><path d="M211.44,48.33h3.42l5.84,11.51,4.76-11.51h1.61l-7.72,18.73a9.36,9.36,0,0,1-1.13,2,7.34,7.34,0,0,1-1.34,1.42,5.25,5.25,0,0,1-1.46.83,4.24,4.24,0,0,1-1.46.28,3.24,3.24,0,0,1-.94-.14,2.41,2.41,0,0,1-.77-.38,1.91,1.91,0,0,1-.52-.58,1.49,1.49,0,0,1-.19-.75,1.63,1.63,0,0,1,.13-.64,1.61,1.61,0,0,1,.35-.56,1.92,1.92,0,0,1,.57-.39,1.78,1.78,0,0,1,.74-.15,1.89,1.89,0,0,1,.75.12,2.59,2.59,0,0,1,.5.25,3.62,3.62,0,0,0,.48.25,1.66,1.66,0,0,0,.69.11,1.32,1.32,0,0,0,.83-.28,3.23,3.23,0,0,0,.66-.71,5.48,5.48,0,0,0,.52-.92c.15-.34.29-.65.41-.94l1-2.39Z" style="fill:#2a7fbe"/><path d="M241.11,54a11.62,11.62,0,0,0,.62,3.91,8.74,8.74,0,0,0,1.7,2.92A7.39,7.39,0,0,0,246,62.64a8.18,8.18,0,0,0,3.22.63,4.9,4.9,0,0,0,2-.42,7.85,7.85,0,0,0,1.78-1.1,9.27,9.27,0,0,0,1.47-1.53,10.4,10.4,0,0,0,1.07-1.73l1.38.94a14.12,14.12,0,0,1-1.43,2,9.42,9.42,0,0,1-1.91,1.7,9.78,9.78,0,0,1-2.45,1.19,10,10,0,0,1-3.05.44,11.66,11.66,0,0,1-3.06-.39,11.48,11.48,0,0,1-2.64-1.1,9.89,9.89,0,0,1-2.15-1.7,10.81,10.81,0,0,1-1.61-2.2A11.26,11.26,0,0,1,237.26,54a11.07,11.07,0,0,1,1.38-5.42,10.8,10.8,0,0,1,1.64-2.22,10.51,10.51,0,0,1,4.86-2.85,11.44,11.44,0,0,1,3.1-.41,8.77,8.77,0,0,1,2.87.45,10,10,0,0,1,4.35,2.88,14.14,14.14,0,0,1,1.45,2l-1.43,1a10.44,10.44,0,0,0-2.75-3.69,5.59,5.59,0,0,0-3.5-1.17,7.9,7.9,0,0,0-3.18.65,7.52,7.52,0,0,0-2.57,1.88,8.85,8.85,0,0,0-1.73,3A11.25,11.25,0,0,0,241.11,54Z" style="fill:#2a7fbe"/><path d="M267.65,64.61a7.9,7.9,0,0,1-3.21-.64,7.62,7.62,0,0,1-2.53-1.74,8,8,0,0,1-1.66-2.57,8.34,8.34,0,0,1-.6-3.16,9.1,9.1,0,0,1,.6-3.32,8.38,8.38,0,0,1,1.66-2.71,7.83,7.83,0,0,1,2.53-1.82,7.75,7.75,0,0,1,3.21-.67,8.27,8.27,0,0,1,3.18.61,7.91,7.91,0,0,1,2.53,1.67,7.67,7.67,0,0,1,1.67,2.5,7.89,7.89,0,0,1,.6,3.07,9.59,9.59,0,0,1-.6,3.41A8.67,8.67,0,0,1,273.36,62a7.74,7.74,0,0,1-2.53,1.89A7.33,7.33,0,0,1,267.65,64.61Zm.56-1.17a2.89,2.89,0,0,0,1.63-.49,4.63,4.63,0,0,0,1.28-1.29,6.26,6.26,0,0,0,.83-1.89,8.61,8.61,0,0,0,.3-2.29,17.57,17.57,0,0,0-.28-3.25,8.84,8.84,0,0,0-.92-2.64,4.91,4.91,0,0,0-1.64-1.77,4.58,4.58,0,0,0-2.5-.65,2.7,2.7,0,0,0-1.46.46,4.59,4.59,0,0,0-1.25,1.27,7,7,0,0,0-.86,1.87A7.64,7.64,0,0,0,263,55a14.25,14.25,0,0,0,.36,3.27,9.45,9.45,0,0,0,1,2.67,5.48,5.48,0,0,0,1.63,1.8A3.83,3.83,0,0,0,268.21,63.44Z" style="fill:#2a7fbe"/><path d="M281.51,48.31V59.66a2.6,2.6,0,0,0,.26,1.13,2.84,2.84,0,0,0,.71.91,3.57,3.57,0,0,0,1.06.62,3.65,3.65,0,0,0,1.29.23,2.71,2.71,0,0,0,1-.2,4.47,4.47,0,0,0,1-.56,6,6,0,0,0,.92-.83,4.92,4.92,0,0,0,.71-1V48.31h3v16h-3v-3a6.68,6.68,0,0,1-1,1.3,7.73,7.73,0,0,1-1.3,1.06,6.42,6.42,0,0,1-1.44.71,4,4,0,0,1-1.4.26,4.48,4.48,0,0,1-1.85-.39,5,5,0,0,1-1.52-1.06,4.73,4.73,0,0,1-1-1.57,5,5,0,0,1-.38-1.93V48.31Z" style="fill:#2a7fbe"/><path d="M294.93,48.31h3v3a12,12,0,0,1,.94-1.28A8.26,8.26,0,0,1,299.91,49a4.83,4.83,0,0,1,1.13-.73,2.82,2.82,0,0,1,1.19-.27,2.78,2.78,0,0,1,.92.16,2.45,2.45,0,0,1,.74.42,2.05,2.05,0,0,1,.5.6,1.62,1.62,0,0,1,.18.74,1.45,1.45,0,0,1-.46,1.17,1.89,1.89,0,0,1-1.27.39,2.51,2.51,0,0,1-.81-.11,3.5,3.5,0,0,1-.55-.25c-.17-.1-.33-.18-.5-.26a1.65,1.65,0,0,0-.63-.11,1.09,1.09,0,0,0-.6.19,2.82,2.82,0,0,0-.61.52,7,7,0,0,0-.61.79c-.21.3-.41.63-.62,1V64.27h-3Z" style="fill:#2a7fbe"/><path d="M308.1,40.14a1.72,1.72,0,0,1,1.22.47,1.67,1.67,0,0,1,.37.5,1.31,1.31,0,0,1,.14.62,1.27,1.27,0,0,1-.14.61,1.59,1.59,0,0,1-.37.51,1.82,1.82,0,0,1-.55.34,1.78,1.78,0,0,1-1.87-.34,1.62,1.62,0,0,1-.38-.51,1.4,1.4,0,0,1-.14-.61,1.44,1.44,0,0,1,.14-.62,1.7,1.7,0,0,1,.38-.5,1.68,1.68,0,0,1,.54-.35A1.84,1.84,0,0,1,308.1,40.14Zm-1.46,8.75,2.11-.91h.87V64.27h-3Z" style="fill:#2a7fbe"/><path d="M320,64.61A6.86,6.86,0,0,1,317.1,64a7.62,7.62,0,0,1-2.35-1.65,7.89,7.89,0,0,1-1.59-2.46,7.72,7.72,0,0,1-.58-3,11.58,11.58,0,0,1,.53-3.55,8.65,8.65,0,0,1,1.51-2.82A7,7,0,0,1,317,48.65,7,7,0,0,1,320,48a6.61,6.61,0,0,1,6.24,4.18,6.89,6.89,0,0,1,.49,2.55H315.46a10.48,10.48,0,0,0,.4,3,7.8,7.8,0,0,0,1.1,2.38,5.16,5.16,0,0,0,1.68,1.55,4.25,4.25,0,0,0,2.16.57,5.43,5.43,0,0,0,1.88-.33,7,7,0,0,0,1.64-.88,5.65,5.65,0,0,0,1.24-1.25,4.4,4.4,0,0,0,.73-1.45l.86.4a7.55,7.55,0,0,1-1,2.31,9,9,0,0,1-1.69,1.88,7.86,7.86,0,0,1-2.11,1.27A6,6,0,0,1,320,64.61Zm3-11.17a4.66,4.66,0,0,0-.3-1.69,4.38,4.38,0,0,0-.83-1.35,4.07,4.07,0,0,0-1.24-.9,3.6,3.6,0,0,0-1.53-.33,2.76,2.76,0,0,0-1.3.33,3.64,3.64,0,0,0-1.11.89,5,5,0,0,0-.81,1.35,5.42,5.42,0,0,0-.38,1.68Z" style="fill:#2a7fbe"/><path d="M330,48.31h3v3a12,12,0,0,1,.94-1.28A8.89,8.89,0,0,1,334.94,49a5.1,5.1,0,0,1,1.14-.73,2.79,2.79,0,0,1,1.19-.27,2.67,2.67,0,0,1,.91.16,2.34,2.34,0,0,1,.74.42,1.91,1.91,0,0,1,.5.6,1.62,1.62,0,0,1,.18.74,1.48,1.48,0,0,1-.45,1.17,1.92,1.92,0,0,1-1.28.39,2.55,2.55,0,0,1-.81-.11,4,4,0,0,1-.55-.25,4.74,4.74,0,0,0-.5-.26,1.58,1.58,0,0,0-.63-.11,1.09,1.09,0,0,0-.6.19,2.78,2.78,0,0,0-.6.52,6,6,0,0,0-.61.79c-.21.3-.42.63-.62,1V64.27h-3Z" style="fill:#2a7fbe"/><path d="M364.31,43.57v1.34H354v7.4h6.92v1.34H354v9.28h10.34v1.34H350.68V43.57Z" style="fill:#2a7fbe"/><path d="M366.53,64.27h-1.65l6.34-8.16-5.35-7.78h3.53l3.7,5.34,4.16-5.34h1.64l-5,6.46,6.49,9.48h-3.55l-4.81-7Z" style="fill:#2a7fbe"/><path d="M381.24,48.31h3v3.25c.3-.4.63-.82,1-1.24a9,9,0,0,1,1.23-1.15,6.55,6.55,0,0,1,1.48-.85,4.52,4.52,0,0,1,1.78-.34,5,5,0,0,1,2.44.6,5.76,5.76,0,0,1,1.87,1.61,7.66,7.66,0,0,1,1.2,2.39,9.84,9.84,0,0,1,.42,2.91,12.48,12.48,0,0,1-.52,3.65A9.07,9.07,0,0,1,393.67,62a6.62,6.62,0,0,1-5.39,2.58,10.63,10.63,0,0,1-1.17-.06,7.66,7.66,0,0,1-1-.21,6.33,6.33,0,0,1-.94-.37,7.9,7.9,0,0,1-.91-.53V71h-3Zm3,11.65a3.24,3.24,0,0,0,.29,1.35,3.37,3.37,0,0,0,.83,1.11,4.07,4.07,0,0,0,1.29.74,4.5,4.5,0,0,0,1.63.28,3,3,0,0,0,1.58-.45,4.43,4.43,0,0,0,1.3-1.29,6.9,6.9,0,0,0,.87-2,9.77,9.77,0,0,0,.32-2.57,14,14,0,0,0-.3-3.08,7.43,7.43,0,0,0-.82-2.19A3.68,3.68,0,0,0,390,50.57a3,3,0,0,0-1.57-.43,3.8,3.8,0,0,0-1.27.21,5.41,5.41,0,0,0-1.12.58,5.84,5.84,0,0,0-1,.82,7.91,7.91,0,0,0-.8,1Z" style="fill:#2a7fbe"/><path d="M398.48,48.31h3v3a12,12,0,0,1,.94-1.28A8.26,8.26,0,0,1,403.47,49a4.83,4.83,0,0,1,1.13-.73,2.82,2.82,0,0,1,1.19-.27,2.67,2.67,0,0,1,.91.16,2.23,2.23,0,0,1,.74.42,1.91,1.91,0,0,1,.5.6,1.63,1.63,0,0,1,.19.74,1.48,1.48,0,0,1-.46,1.17,1.92,1.92,0,0,1-1.28.39,2.48,2.48,0,0,1-.8-.11,3.13,3.13,0,0,1-.55-.25c-.17-.1-.33-.18-.5-.26a1.67,1.67,0,0,0-.64-.11,1.08,1.08,0,0,0-.59.19,2.6,2.6,0,0,0-.61.52,6,6,0,0,0-.61.79c-.21.3-.42.63-.62,1V64.27h-3Z" style="fill:#2a7fbe"/><path d="M416.47,64.61a6.86,6.86,0,0,1-2.88-.61,7.62,7.62,0,0,1-2.35-1.65,7.89,7.89,0,0,1-1.59-2.46,7.72,7.72,0,0,1-.58-3,11.58,11.58,0,0,1,.53-3.55,8.65,8.65,0,0,1,1.51-2.82,7,7,0,0,1,2.34-1.86A7,7,0,0,1,416.5,48a6.72,6.72,0,0,1,2.73.55A6.61,6.61,0,0,1,421.36,50a6.81,6.81,0,0,1,1.87,4.7H412a10.84,10.84,0,0,0,.4,3,7.8,7.8,0,0,0,1.1,2.38,5.19,5.19,0,0,0,1.69,1.55,4.19,4.19,0,0,0,2.15.57,5.49,5.49,0,0,0,1.89-.33,6.89,6.89,0,0,0,1.63-.88,5.65,5.65,0,0,0,1.24-1.25,4.4,4.4,0,0,0,.73-1.45l.86.4A7.55,7.55,0,0,1,422.59,61a8.7,8.7,0,0,1-1.69,1.88,7.86,7.86,0,0,1-2.11,1.27A6,6,0,0,1,416.47,64.61Zm3-11.17a4.66,4.66,0,0,0-.3-1.69,4.2,4.2,0,0,0-.83-1.35,4,4,0,0,0-1.24-.9,3.56,3.56,0,0,0-1.53-.33,2.76,2.76,0,0,0-1.3.33,3.64,3.64,0,0,0-1.11.89,4.73,4.73,0,0,0-.8,1.35,5.16,5.16,0,0,0-.39,1.68Z" style="fill:#2a7fbe"/><path d="M431.28,63.51a3,3,0,0,0,1.14-.2,2.86,2.86,0,0,0,.9-.53,2.48,2.48,0,0,0,.58-.75,2,2,0,0,0,.21-.88,2.3,2.3,0,0,0-.34-1.27,3.86,3.86,0,0,0-.92-1,7.76,7.76,0,0,0-1.3-.8c-.49-.23-1-.48-1.49-.73s-1-.53-1.48-.82a6.54,6.54,0,0,1-1.3-1,4.54,4.54,0,0,1-.92-1.32,4.28,4.28,0,0,1,1.11-5,4.87,4.87,0,0,1,1.64-.93,6,6,0,0,1,2.07-.34,9,9,0,0,1,1.41.11,4.48,4.48,0,0,1,1.29.44,5.68,5.68,0,0,1,1.25.89,10.49,10.49,0,0,1,1.3,1.52l-1.09,1a6.67,6.67,0,0,0-1.93-2.21,3.88,3.88,0,0,0-2.27-.73,4,4,0,0,0-1.17.17,3,3,0,0,0-.91.46,2,2,0,0,0-.59.68,1.66,1.66,0,0,0-.21.81,2,2,0,0,0,.38,1.25,4,4,0,0,0,1,1,10.4,10.4,0,0,0,1.41.79l1.62.75q.82.38,1.62.81a6.89,6.89,0,0,1,1.41,1,4.8,4.8,0,0,1,1,1.32,3.86,3.86,0,0,1,.38,1.75,5,5,0,0,1-.36,1.89,4.11,4.11,0,0,1-1.08,1.53,5.19,5.19,0,0,1-1.81,1,7.77,7.77,0,0,1-2.54.37,8,8,0,0,1-1.36-.11,5.67,5.67,0,0,1-1.41-.43,6.44,6.44,0,0,1-1.42-.9,8.21,8.21,0,0,1-1.38-1.51l1.22-1.18A12.81,12.81,0,0,0,428,61.87a6.71,6.71,0,0,0,1,.94,3.68,3.68,0,0,0,1.07.53A3.87,3.87,0,0,0,431.28,63.51Z" style="fill:#2a7fbe"/><path d="M444.92,63.51a3,3,0,0,0,1.14-.2,2.86,2.86,0,0,0,.9-.53,2.48,2.48,0,0,0,.58-.75,2,2,0,0,0,.21-.88,2.3,2.3,0,0,0-.34-1.27,3.86,3.86,0,0,0-.92-1,7.76,7.76,0,0,0-1.3-.8c-.49-.23-1-.48-1.49-.73s-1-.53-1.48-.82a6.54,6.54,0,0,1-1.3-1,4.54,4.54,0,0,1-.92-1.32,4.28,4.28,0,0,1,1.11-5,4.87,4.87,0,0,1,1.64-.93,6,6,0,0,1,2.07-.34,9,9,0,0,1,1.41.11,4.48,4.48,0,0,1,1.29.44,5.68,5.68,0,0,1,1.25.89,10.49,10.49,0,0,1,1.3,1.52L449,52a6.54,6.54,0,0,0-1.92-2.21,3.88,3.88,0,0,0-2.27-.73,4,4,0,0,0-1.17.17,3,3,0,0,0-.91.46,2,2,0,0,0-.59.68,1.67,1.67,0,0,0-.22.81,2.1,2.1,0,0,0,.38,1.25,4.21,4.21,0,0,0,1,1,10.4,10.4,0,0,0,1.41.79l1.62.75q.82.38,1.62.81a7.17,7.17,0,0,1,1.41,1,4.8,4.8,0,0,1,1,1.32,3.86,3.86,0,0,1,.38,1.75,5,5,0,0,1-.36,1.89,4.11,4.11,0,0,1-1.08,1.53,5.19,5.19,0,0,1-1.81,1,7.81,7.81,0,0,1-2.54.37,8,8,0,0,1-1.36-.11,5.67,5.67,0,0,1-1.41-.43,6.44,6.44,0,0,1-1.42-.9,8.21,8.21,0,0,1-1.38-1.51l1.22-1.18a12.81,12.81,0,0,0,1.06,1.39,6.71,6.71,0,0,0,1,.94,3.68,3.68,0,0,0,1.07.53A3.87,3.87,0,0,0,444.92,63.51Z" style="fill:#2a7fbe"/><path id="76236d2a-0117-4016-9f7c-53a4caf7034e" data-name="TO-6 route good" d="M34.65,36.58C29.57,33,24.1,33.12,18.41,33.21c-2.57,0-4.43.29-4.45.21a51.19,51.19,0,0,1,11.53-1.3c7.74-.11,13.46,1.51,18.64,3a99.72,99.72,0,0,1,17.55,7.05c4.66,2.31,7.1,3.53,9.68,5.4C82.06,55.3,84.19,68,85.08,67.66S84.66,58,78.69,50.58A36,36,0,0,0,73,45a45.39,45.39,0,0,0-8.55-5C56.12,35.75,49,32.16,49.53,29.33c.3-1.5,2.54-2.59,4.95-3.71a20.38,20.38,0,0,1,4.72-1.47,35.39,35.39,0,0,1,5.93-.78,129.8,129.8,0,0,1,18.9.52,49.5,49.5,0,0,0-9.75.19c-1.15.15-11,1.5-11.36,4.09-.2,1.49,2.91,2.8,9.14,5.35,4.56,1.86,8.16,3,13.52,4.75,3.91,1.26,12.33,3.93,18.11,8.32,1,.76,1.92,1.39,1.84,2.21-.32,3-13.36,1.55-18.14,7.77-3.49,4.56-.69,10.79-2.11,11.09s-1.73-5.15-5.87-8.27c-9.62-7.23-31.07,4-34.7-1.27-.1-.14-.1-.08-.42-2.25-.2-1.42-1.19-8.42-4-13.21A19.06,19.06,0,0,0,34.65,36.58Z" style="fill:#017eb4"/></svg>